<?xml version="1.0" encoding="UTF-8" standalone="no"?>
<!-- Created with Inkscape (http://www.inkscape.org/) -->

<svg
   xmlns:dc="http://purl.org/dc/elements/1.1/"
   xmlns:cc="http://creativecommons.org/ns#"
   xmlns:rdf="http://www.w3.org/1999/02/22-rdf-syntax-ns#"
   xmlns:svg="http://www.w3.org/2000/svg"
   xmlns="http://www.w3.org/2000/svg"
   xmlns:xlink="http://www.w3.org/1999/xlink"
   xmlns:sodipodi="http://sodipodi.sourceforge.net/DTD/sodipodi-0.dtd"
   xmlns:inkscape="http://www.inkscape.org/namespaces/inkscape"
   width="1988.5625"
   height="500"
   id="svg3886"
   version="1.1"
   inkscape:version="0.48.4 r9939"
   sodipodi:docname="Ammu-Nation-Logo_2.svg">
  <defs
     id="defs3888">
    <rect
       height="50"
       width="1235"
       id="stripe"
       x="0"
       y="0"
       style="fill:#bb133e" />
    <g
       id="u">
      <use
         id="use4504"
         y="-0.21600001"
         xlink:href="#x4"
         x="0"
         width="744.09448"
         height="1052.3622" />
      <use
         id="use4506"
         xlink:href="#x4"
         x="0"
         y="0"
         width="744.09448"
         height="1052.3622" />
      <use
         id="use4508"
         y="0.21600001"
         xlink:href="#s6"
         x="0"
         width="744.09448"
         height="1052.3622" />
    </g>
    <g
       id="x4">
      <use
         id="use4495"
         xlink:href="#s6"
         x="0"
         y="0"
         width="744.09448"
         height="1052.3622" />
      <use
         id="use4497"
         y="0.054000001"
         xlink:href="#s5"
         x="0"
         width="744.09448"
         height="1052.3622" />
      <use
         id="use4499"
         y="0.108"
         xlink:href="#s6"
         x="0"
         width="744.09448"
         height="1052.3622" />
      <use
         id="use4501"
         y="0.162"
         xlink:href="#s5"
         x="0"
         width="744.09448"
         height="1052.3622" />
    </g>
    <g
       id="s6">
      <use
         id="use4490"
         x="-0.063000001"
         xlink:href="#s5"
         y="0"
         width="744.09448"
         height="1052.3622" />
      <use
         id="use4492"
         x="0.315"
         xlink:href="#star"
         y="0"
         width="744.09448"
         height="1052.3622" />
    </g>
    <g
       id="s5">
      <use
         id="use4479"
         x="-0.252"
         xlink:href="#star"
         y="0"
         width="744.09448"
         height="1052.3622" />
      <use
         id="use4481"
         x="-0.126"
         xlink:href="#star"
         y="0"
         width="744.09448"
         height="1052.3622" />
      <use
         id="use4483"
         xlink:href="#star"
         x="0"
         y="0"
         width="744.09448"
         height="1052.3622" />
      <use
         id="use4485"
         x="0.126"
         xlink:href="#star"
         y="0"
         width="744.09448"
         height="1052.3622" />
      <use
         id="use4487"
         x="0.252"
         xlink:href="#star"
         y="0"
         width="744.09448"
         height="1052.3622" />
    </g>
    <g
       id="star">
      <use
         id="use4468"
         transform="matrix(-0.80901699,-0.58778525,0.58778525,-0.80901699,0,0)"
         xlink:href="#pt"
         x="0"
         y="0"
         width="744.09448"
         height="1052.3622" />
      <use
         id="use4470"
         transform="matrix(0.30901699,-0.95105652,0.95105652,0.30901699,0,0)"
         xlink:href="#pt"
         x="0"
         y="0"
         width="744.09448"
         height="1052.3622" />
      <use
         id="use4472"
         xlink:href="#pt"
         x="0"
         y="0"
         width="744.09448"
         height="1052.3622" />
      <use
         id="use4474"
         transform="matrix(0.30901699,0.95105652,-0.95105652,0.30901699,0,0)"
         xlink:href="#pt"
         x="0"
         y="0"
         width="744.09448"
         height="1052.3622" />
      <use
         id="use4476"
         transform="matrix(-0.80901699,0.58778525,-0.58778525,-0.80901699,0,0)"
         xlink:href="#pt"
         x="0"
         y="0"
         width="744.09448"
         height="1052.3622" />
    </g>
    <polygon
       transform="scale(0.0616,0.0616)"
       points="0,-0.5 0.16245985,0 -0.16245985,0 "
       id="pt"
       style="fill:#ffffff" />
    <filter
       inkscape:collect="always"
       id="filter5847"
       color-interpolation-filters="sRGB">
      <feGaussianBlur
         inkscape:collect="always"
         stdDeviation="0.64611855"
         id="feGaussianBlur5849" />
    </filter>
  </defs>
  <sodipodi:namedview
     id="base"
     pagecolor="#ffffff"
     bordercolor="#666666"
     borderopacity="1.0"
     inkscape:pageopacity="0.0"
     inkscape:pageshadow="2"
     inkscape:zoom="0.51250704"
     inkscape:cx="1412.9947"
     inkscape:cy="260.30744"
     inkscape:document-units="px"
     inkscape:current-layer="layer1"
     showgrid="false"
     fit-margin-top="0"
     fit-margin-left="0"
     fit-margin-right="0"
     fit-margin-bottom="0"
     inkscape:window-width="1680"
     inkscape:window-height="990"
     inkscape:window-x="-4"
     inkscape:window-y="-4"
     inkscape:window-maximized="1" />
  <metadata
     id="metadata3891">
    <rdf:RDF>
      <cc:Work
         rdf:about="">
        <dc:format>image/svg+xml</dc:format>
        <dc:type
           rdf:resource="http://purl.org/dc/dcmitype/StillImage" />
        <dc:title />
      </cc:Work>
    </rdf:RDF>
  </metadata>
  <g
     inkscape:groupmode="layer"
     id="layer3"
     inkscape:label="Warstwa#3"
     transform="translate(0,374.75)">
    <path
       id="path3970"
       d="m 16.868858,-357.87276 1954.808942,0 0,466.24934 -1954.808942,0 z"
       style="fill:#ffffff;stroke:#000000;stroke-width:33.75065231;stroke-miterlimit:4"
       inkscape:connector-curvature="0" />
  </g>
  <g
     inkscape:groupmode="layer"
     id="layer8"
     inkscape:label="Warstwa#2"
     transform="translate(-592.65625,-290.46875)">
    <path
       style="fill:none;stroke:#000000;stroke-width:33.75065231;stroke-miterlimit:4"
       d="m 616.76158,307.34599 1954.80882,0 0,466.24934 -1954.80882,0 z"
       id="rect4787"
       inkscape:connector-curvature="0" />
    <path
       inkscape:connector-curvature="0"
       id="path4791"
       d="m 1041.2608,730.1176 1532.5712,0 0,48.72795 -1532.5712,0 z"
       style="opacity:0.8;fill:#bb133e;fill-opacity:1;stroke:none" />
    <path
       style="opacity:0.8;fill:#bb133e;fill-opacity:1;stroke:none"
       d="m 1041.2608,305.71323 1532.5712,0 0,48.72795 -1532.5712,0 z"
       id="path4793"
       inkscape:connector-curvature="0" />
    <path
       inkscape:connector-curvature="0"
       id="path4795"
       d="m 1041.2608,420.45963 1532.5712,0 0,89.5965 -1532.5712,0 z"
       style="opacity:0.8;fill:#bb133e;fill-opacity:1;stroke:none" />
    <path
       style="opacity:0.8;fill:#bb133e;fill-opacity:1;stroke:none"
       d="m 1041.2608,574.50265 1532.5712,0 0,89.5965 -1532.5712,0 z"
       id="path4797"
       inkscape:connector-curvature="0" />
    <path
       style="opacity:0.8;fill:#002664;fill-opacity:1;fill-rule:nonzero;stroke:none"
       d="m 626.14929,319.86014 419.68871,0 0,452.69798 -419.68871,0 z"
       id="rect4799"
       inkscape:connector-curvature="0" />
    <path
       style="fill:#ffffff;fill-opacity:1;fill-rule:nonzero;stroke:none"
       d="m 695.59092,376.22631 -14.35843,10.05558 5.55988,16.62426 -14.00037,-10.54833 -14.09279,10.42468 5.70575,-16.57481 -14.26943,-10.18164 17.52681,0.3046 5.27373,-16.71731 5.12611,16.7632 z"
       id="path4801"
       inkscape:connector-curvature="0" />
    <path
       style="fill:#ffffff;fill-opacity:1;fill-rule:nonzero;stroke:none"
       d="m 774.86182,376.22631 -14.35844,10.05558 5.55989,16.62426 -14.00038,-10.54833 -14.09279,10.42468 5.70576,-16.57481 -14.26944,-10.18164 17.52681,0.3046 5.27373,-16.71731 5.12611,16.7632 z"
       id="path4803"
       inkscape:connector-curvature="0" />
    <path
       style="fill:#ffffff;fill-opacity:1;fill-rule:nonzero;stroke:none"
       d="m 846.58309,376.22631 -14.35843,10.05558 5.55988,16.62426 -14.00037,-10.54833 -14.09279,10.42468 5.70575,-16.57481 -14.26943,-10.18164 17.52681,0.3046 5.27373,-16.71731 5.12611,16.7632 z"
       id="path4805"
       inkscape:connector-curvature="0" />
    <path
       style="fill:#ffffff;fill-opacity:1;fill-rule:nonzero;stroke:none"
       d="m 925.85398,376.22631 -14.35843,10.05558 5.55988,16.62426 -14.00037,-10.54833 -14.09279,10.42468 5.70575,-16.57481 -14.26943,-10.18164 17.52681,0.3046 5.27373,-16.71731 5.12611,16.7632 z"
       id="path4807"
       inkscape:connector-curvature="0" />
    <path
       style="fill:#ffffff;fill-opacity:1;fill-rule:nonzero;stroke:none"
       d="m 1003.2375,376.22631 -14.3584,10.05558 5.55988,16.62426 -14.00037,-10.54833 -14.09279,10.42468 5.70575,-16.57481 -14.26943,-10.18164 17.52681,0.3046 5.27373,-16.71731 5.12611,16.7632 z"
       id="path4809"
       inkscape:connector-curvature="0" />
    <path
       style="fill:#ffffff;fill-opacity:1;fill-rule:nonzero;stroke:none"
       d="m 655.01176,328.09757 -14.35843,10.05558 5.55989,16.62426 -14.00038,-10.54833 -14.09279,10.42468 5.70576,-16.5748 -14.26944,-10.18165 17.52681,0.30461 5.27373,-16.71731 5.12611,16.7632 z"
       id="path4811"
       inkscape:connector-curvature="0" />
    <path
       style="fill:#ffffff;fill-opacity:1;fill-rule:nonzero;stroke:none"
       d="m 734.28266,328.09757 -14.35844,10.05558 5.55989,16.62426 -14.00038,-10.54833 -14.09279,10.42468 5.70576,-16.5748 -14.26943,-10.18165 17.5268,0.30461 5.27373,-16.71731 5.12611,16.7632 z"
       id="path4813"
       inkscape:connector-curvature="0" />
    <path
       style="fill:#ffffff;fill-opacity:1;fill-rule:nonzero;stroke:none"
       d="m 806.00393,328.09757 -14.35843,10.05558 5.55988,16.62426 -14.00037,-10.54833 -14.09279,10.42468 5.70575,-16.5748 -14.26943,-10.18165 17.52681,0.30461 5.27373,-16.71731 5.12611,16.7632 z"
       id="path4815"
       inkscape:connector-curvature="0" />
    <path
       style="fill:#ffffff;fill-opacity:1;fill-rule:nonzero;stroke:none"
       d="m 885.27487,328.09757 -14.35844,10.05558 5.55989,16.62426 -14.00038,-10.54833 -14.09279,10.42468 5.70576,-16.5748 -14.26943,-10.18165 17.5268,0.30461 5.27373,-16.71731 5.12611,16.7632 z"
       id="path4817"
       inkscape:connector-curvature="0" />
    <path
       style="fill:#ffffff;fill-opacity:1;fill-rule:nonzero;stroke:none"
       d="m 962.65837,328.09757 -14.35843,10.05558 5.55988,16.62426 -14.00037,-10.54833 -14.09279,10.42468 5.70575,-16.5748 -14.26943,-10.18165 17.52681,0.30461 5.27373,-16.71731 5.12611,16.7632 z"
       id="path4819"
       inkscape:connector-curvature="0" />
    <path
       style="fill:#ffffff;fill-opacity:1;fill-rule:nonzero;stroke:none"
       d="m 1032.4923,328.09757 -14.3585,10.05558 5.5599,16.62426 -14.0004,-10.54833 -14.09275,10.42468 5.70575,-16.5748 -14.26942,-10.18165 17.52682,0.30461 5.2737,-16.71731 5.1261,16.7632 z"
       id="path4821"
       inkscape:connector-curvature="0" />
    <path
       style="fill:#ffffff;fill-opacity:1;fill-rule:nonzero;stroke:none"
       d="m 695.59092,481.92086 -14.35843,10.05558 5.55988,16.62426 -14.00037,-10.54833 -14.09279,10.42468 5.70575,-16.57481 -14.26943,-10.18164 17.52681,0.3046 5.27373,-16.71731 5.12611,16.7632 z"
       id="path4823"
       inkscape:connector-curvature="0" />
    <path
       style="fill:#ffffff;fill-opacity:1;fill-rule:nonzero;stroke:none"
       d="m 774.86182,481.92086 -14.35844,10.05558 5.55989,16.62426 -14.00038,-10.54833 -14.09279,10.42468 5.70576,-16.57481 -14.26944,-10.18164 17.52681,0.3046 5.27373,-16.71731 5.12611,16.7632 z"
       id="path4825"
       inkscape:connector-curvature="0" />
    <path
       style="fill:#ffffff;fill-opacity:1;fill-rule:nonzero;stroke:none"
       d="m 846.58309,481.92086 -14.35843,10.05558 5.55988,16.62426 -14.00037,-10.54833 -14.09279,10.42468 5.70575,-16.57481 -14.26943,-10.18164 17.52681,0.3046 5.27373,-16.71731 5.12611,16.7632 z"
       id="path4827"
       inkscape:connector-curvature="0" />
    <path
       style="fill:#ffffff;fill-opacity:1;fill-rule:nonzero;stroke:none"
       d="m 925.85398,481.92086 -14.35843,10.05558 5.55988,16.62426 -14.00037,-10.54833 -14.09279,10.42468 5.70575,-16.57481 -14.26943,-10.18164 17.52681,0.3046 5.27373,-16.71731 5.12611,16.7632 z"
       id="path4829"
       inkscape:connector-curvature="0" />
    <path
       style="fill:#ffffff;fill-opacity:1;fill-rule:nonzero;stroke:none"
       d="m 1003.2375,481.92086 -14.3584,10.05558 5.55988,16.62426 -14.00037,-10.54833 -14.09279,10.42468 5.70575,-16.57481 -14.26943,-10.18164 17.52681,0.3046 5.27373,-16.71731 5.12611,16.7632 z"
       id="path4831"
       inkscape:connector-curvature="0" />
    <path
       style="fill:#ffffff;fill-opacity:1;fill-rule:nonzero;stroke:none"
       d="m 655.01176,433.79212 -14.35843,10.05558 5.55989,16.62426 -14.00038,-10.54833 -14.09279,10.42468 5.70576,-16.5748 -14.26944,-10.18165 17.52681,0.30461 5.27373,-16.71731 5.12611,16.7632 z"
       id="path4833"
       inkscape:connector-curvature="0" />
    <path
       style="fill:#ffffff;fill-opacity:1;fill-rule:nonzero;stroke:none"
       d="m 734.28266,433.79212 -14.35844,10.05558 5.55989,16.62426 -14.00038,-10.54833 -14.09279,10.42468 5.70576,-16.5748 -14.26943,-10.18165 17.5268,0.30461 5.27373,-16.71731 5.12611,16.7632 z"
       id="path4835"
       inkscape:connector-curvature="0" />
    <path
       style="fill:#ffffff;fill-opacity:1;fill-rule:nonzero;stroke:none"
       d="m 806.00393,433.79212 -14.35843,10.05558 5.55988,16.62426 -14.00037,-10.54833 -14.09279,10.42468 5.70575,-16.5748 -14.26943,-10.18165 17.52681,0.30461 5.27373,-16.71731 5.12611,16.7632 z"
       id="path4837"
       inkscape:connector-curvature="0" />
    <path
       style="fill:#ffffff;fill-opacity:1;fill-rule:nonzero;stroke:none"
       d="m 885.27487,433.79212 -14.35844,10.05558 5.55989,16.62426 -14.00038,-10.54833 -14.09279,10.42468 5.70576,-16.5748 -14.26943,-10.18165 17.5268,0.30461 5.27373,-16.71731 5.12611,16.7632 z"
       id="path4839"
       inkscape:connector-curvature="0" />
    <path
       style="fill:#ffffff;fill-opacity:1;fill-rule:nonzero;stroke:none"
       d="m 962.65837,433.79212 -14.35843,10.05558 5.55988,16.62426 -14.00037,-10.54833 -14.09279,10.42468 5.70575,-16.5748 -14.26943,-10.18165 17.52681,0.30461 5.27373,-16.71731 5.12611,16.7632 z"
       id="path4841"
       inkscape:connector-curvature="0" />
    <path
       style="fill:#ffffff;fill-opacity:1;fill-rule:nonzero;stroke:none"
       d="m 1032.4923,433.79212 -14.3585,10.05558 5.5599,16.62426 -14.0004,-10.54833 -14.09275,10.42468 5.70575,-16.5748 -14.26942,-10.18165 17.52682,0.30461 5.2737,-16.71731 5.1261,16.7632 z"
       id="path4843"
       inkscape:connector-curvature="0" />
    <path
       style="fill:#ffffff;fill-opacity:1;fill-rule:nonzero;stroke:none"
       d="m 695.59092,584.78433 -14.35843,10.05558 5.55988,16.62426 -14.00037,-10.54833 -14.09279,10.42468 5.70575,-16.5748 -14.26943,-10.18165 17.52681,0.30461 5.27373,-16.71731 5.12611,16.7632 z"
       id="path4845"
       inkscape:connector-curvature="0" />
    <path
       style="fill:#ffffff;fill-opacity:1;fill-rule:nonzero;stroke:none"
       d="m 774.86182,584.78433 -14.35844,10.05558 5.55989,16.62426 -14.00038,-10.54833 -14.09279,10.42468 5.70576,-16.5748 -14.26944,-10.18165 17.52681,0.30461 5.27373,-16.71731 5.12611,16.7632 z"
       id="path4847"
       inkscape:connector-curvature="0" />
    <path
       style="fill:#ffffff;fill-opacity:1;fill-rule:nonzero;stroke:none"
       d="m 846.58309,584.78433 -14.35843,10.05558 5.55988,16.62426 -14.00037,-10.54833 -14.09279,10.42468 5.70575,-16.5748 -14.26943,-10.18165 17.52681,0.30461 5.27373,-16.71731 5.12611,16.7632 z"
       id="path4849"
       inkscape:connector-curvature="0" />
    <path
       style="fill:#ffffff;fill-opacity:1;fill-rule:nonzero;stroke:none"
       d="m 925.85398,584.78433 -14.35843,10.05558 5.55988,16.62426 -14.00037,-10.54833 -14.09279,10.42468 5.70575,-16.5748 -14.26943,-10.18165 17.52681,0.30461 5.27373,-16.71731 5.12611,16.7632 z"
       id="path4851"
       inkscape:connector-curvature="0" />
    <path
       style="fill:#ffffff;fill-opacity:1;fill-rule:nonzero;stroke:none"
       d="m 1003.2375,584.78433 -14.3584,10.05558 5.55988,16.62426 -14.00037,-10.54833 -14.09279,10.42468 5.70575,-16.5748 -14.26943,-10.18165 17.52681,0.30461 5.27373,-16.71731 5.12611,16.7632 z"
       id="path4853"
       inkscape:connector-curvature="0" />
    <path
       style="fill:#ffffff;fill-opacity:1;fill-rule:nonzero;stroke:none"
       d="m 655.01176,536.65556 -14.35843,10.05558 5.55989,16.62426 -14.00038,-10.54833 -14.09279,10.42468 5.70576,-16.57481 -14.26944,-10.18165 17.52681,0.30461 5.27373,-16.71731 5.12611,16.7632 z"
       id="path4855"
       inkscape:connector-curvature="0" />
    <path
       style="fill:#ffffff;fill-opacity:1;fill-rule:nonzero;stroke:none"
       d="m 734.28266,536.65556 -14.35844,10.05558 5.55989,16.62426 -14.00038,-10.54833 -14.09279,10.42468 5.70576,-16.57481 -14.26943,-10.18165 17.5268,0.30461 5.27373,-16.71731 5.12611,16.7632 z"
       id="path4857"
       inkscape:connector-curvature="0" />
    <path
       style="fill:#ffffff;fill-opacity:1;fill-rule:nonzero;stroke:none"
       d="m 806.00393,536.65556 -14.35843,10.05558 5.55988,16.62426 -14.00037,-10.54833 -14.09279,10.42468 5.70575,-16.57481 -14.26943,-10.18165 17.52681,0.30461 5.27373,-16.71731 5.12611,16.7632 z"
       id="path4859"
       inkscape:connector-curvature="0" />
    <path
       style="fill:#ffffff;fill-opacity:1;fill-rule:nonzero;stroke:none"
       d="m 885.27487,536.65556 -14.35844,10.05558 5.55989,16.62426 -14.00038,-10.54833 -14.09279,10.42468 5.70576,-16.57481 -14.26943,-10.18165 17.5268,0.30461 5.27373,-16.71731 5.12611,16.7632 z"
       id="path4861"
       inkscape:connector-curvature="0" />
    <path
       style="fill:#ffffff;fill-opacity:1;fill-rule:nonzero;stroke:none"
       d="m 962.65837,536.65556 -14.35843,10.05558 5.55988,16.62426 -14.00037,-10.54833 -14.09279,10.42468 5.70575,-16.57481 -14.26943,-10.18165 17.52681,0.30461 5.27373,-16.71731 5.12611,16.7632 z"
       id="path4863"
       inkscape:connector-curvature="0" />
    <path
       style="fill:#ffffff;fill-opacity:1;fill-rule:nonzero;stroke:none"
       d="m 1032.4923,536.65556 -14.3585,10.05558 5.5599,16.62426 -14.0004,-10.54833 -14.09275,10.42468 5.70575,-16.57481 -14.26942,-10.18165 17.52682,0.30461 5.2737,-16.71731 5.1261,16.7632 z"
       id="path4865"
       inkscape:connector-curvature="0" />
    <path
       style="fill:#ffffff;fill-opacity:1;fill-rule:nonzero;stroke:none"
       d="m 695.59092,695.19738 -14.35843,10.05558 5.55988,16.62426 -14.00037,-10.54833 -14.09279,10.42468 5.70575,-16.5748 -14.26943,-10.18165 17.52681,0.30461 5.27373,-16.71731 5.12611,16.7632 z"
       id="path4867"
       inkscape:connector-curvature="0" />
    <path
       style="fill:#ffffff;fill-opacity:1;fill-rule:nonzero;stroke:none"
       d="m 774.86182,695.19738 -14.35844,10.05558 5.55989,16.62426 -14.00038,-10.54833 -14.09279,10.42468 5.70576,-16.5748 -14.26944,-10.18165 17.52681,0.30461 5.27373,-16.71731 5.12611,16.7632 z"
       id="path4869"
       inkscape:connector-curvature="0" />
    <path
       style="fill:#ffffff;fill-opacity:1;fill-rule:nonzero;stroke:none"
       d="m 846.58309,695.19738 -14.35843,10.05558 5.55988,16.62426 -14.00037,-10.54833 -14.09279,10.42468 5.70575,-16.5748 -14.26943,-10.18165 17.52681,0.30461 5.27373,-16.71731 5.12611,16.7632 z"
       id="path4871"
       inkscape:connector-curvature="0" />
    <path
       style="fill:#ffffff;fill-opacity:1;fill-rule:nonzero;stroke:none"
       d="m 925.85398,695.19738 -14.35843,10.05558 5.55988,16.62426 -14.00037,-10.54833 -14.09279,10.42468 5.70575,-16.5748 -14.26943,-10.18165 17.52681,0.30461 5.27373,-16.71731 5.12611,16.7632 z"
       id="path4873"
       inkscape:connector-curvature="0" />
    <path
       style="fill:#ffffff;fill-opacity:1;fill-rule:nonzero;stroke:none"
       d="m 1003.2375,695.19738 -14.3584,10.05558 5.55988,16.62426 -14.00037,-10.54833 -14.09279,10.42468 5.70575,-16.5748 -14.26943,-10.18165 17.52681,0.30461 5.27373,-16.71731 5.12611,16.7632 z"
       id="path4875"
       inkscape:connector-curvature="0" />
    <path
       style="fill:#ffffff;fill-opacity:1;fill-rule:nonzero;stroke:none"
       d="m 655.01176,647.06861 -14.35843,10.05558 5.55989,16.62426 -14.00038,-10.54833 -14.09279,10.42468 5.70576,-16.57481 -14.26944,-10.18165 17.52681,0.30461 5.27373,-16.71731 5.12611,16.7632 z"
       id="path4877"
       inkscape:connector-curvature="0" />
    <path
       style="fill:#ffffff;fill-opacity:1;fill-rule:nonzero;stroke:none"
       d="m 734.28266,647.06861 -14.35844,10.05558 5.55989,16.62426 -14.00038,-10.54833 -14.09279,10.42468 5.70576,-16.57481 -14.26943,-10.18165 17.5268,0.30461 5.27373,-16.71731 5.12611,16.7632 z"
       id="path4879"
       inkscape:connector-curvature="0" />
    <path
       style="fill:#ffffff;fill-opacity:1;fill-rule:nonzero;stroke:none"
       d="m 806.00393,647.06861 -14.35843,10.05558 5.55988,16.62426 -14.00037,-10.54833 -14.09279,10.42468 5.70575,-16.57481 -14.26943,-10.18165 17.52681,0.30461 5.27373,-16.71731 5.12611,16.7632 z"
       id="path4881"
       inkscape:connector-curvature="0" />
    <path
       style="fill:#ffffff;fill-opacity:1;fill-rule:nonzero;stroke:none"
       d="m 885.27487,647.06861 -14.35844,10.05558 5.55989,16.62426 -14.00038,-10.54833 -14.09279,10.42468 5.70576,-16.57481 -14.26943,-10.18165 17.5268,0.30461 5.27373,-16.71731 5.12611,16.7632 z"
       id="path4883"
       inkscape:connector-curvature="0" />
    <path
       style="fill:#ffffff;fill-opacity:1;fill-rule:nonzero;stroke:none"
       d="m 962.65837,647.06861 -14.35843,10.05558 5.55988,16.62426 -14.00037,-10.54833 -14.09279,10.42468 5.70575,-16.57481 -14.26943,-10.18165 17.52681,0.30461 5.27373,-16.71731 5.12611,16.7632 z"
       id="path4885"
       inkscape:connector-curvature="0" />
    <path
       style="fill:#ffffff;fill-opacity:1;fill-rule:nonzero;stroke:none"
       d="m 1032.4923,647.06861 -14.3585,10.05558 5.5599,16.62426 -14.0004,-10.54833 -14.09275,10.42468 5.70575,-16.57481 -14.26942,-10.18165 17.52682,0.30461 5.2737,-16.71731 5.1261,16.7632 z"
       id="path4887"
       inkscape:connector-curvature="0" />
    <path
       style="fill:#ffffff;fill-opacity:1;fill-rule:nonzero;stroke:none"
       d="m 655.01176,744.26985 -14.35843,10.05558 5.55989,16.62426 -14.00038,-10.54833 -14.09279,10.42468 5.70576,-16.57481 -14.26944,-10.18164 17.52681,0.3046 5.27373,-16.71731 5.12611,16.7632 z"
       id="path4889"
       inkscape:connector-curvature="0" />
    <path
       style="fill:#ffffff;fill-opacity:1;fill-rule:nonzero;stroke:none"
       d="m 734.28266,744.26985 -14.35844,10.05558 5.55989,16.62426 -14.00038,-10.54833 -14.09279,10.42468 5.70576,-16.57481 -14.26943,-10.18164 17.5268,0.3046 5.27373,-16.71731 5.12611,16.7632 z"
       id="path4891"
       inkscape:connector-curvature="0" />
    <path
       style="fill:#ffffff;fill-opacity:1;fill-rule:nonzero;stroke:none"
       d="m 806.00393,744.26985 -14.35843,10.05558 5.55988,16.62426 -14.00037,-10.54833 -14.09279,10.42468 5.70575,-16.57481 -14.26943,-10.18164 17.52681,0.3046 5.27373,-16.71731 5.12611,16.7632 z"
       id="path4893"
       inkscape:connector-curvature="0" />
    <path
       style="fill:#ffffff;fill-opacity:1;fill-rule:nonzero;stroke:none"
       d="m 885.27487,744.26985 -14.35844,10.05558 5.55989,16.62426 -14.00038,-10.54833 -14.09279,10.42468 5.70576,-16.57481 -14.26943,-10.18164 17.5268,0.3046 5.27373,-16.71731 5.12611,16.7632 z"
       id="path4895"
       inkscape:connector-curvature="0" />
    <path
       style="fill:#ffffff;fill-opacity:1;fill-rule:nonzero;stroke:none"
       d="m 962.65837,744.26985 -14.35843,10.05558 5.55988,16.62426 -14.00037,-10.54833 -14.09279,10.42468 5.70575,-16.57481 -14.26943,-10.18164 17.52681,0.3046 5.27373,-16.71731 5.12611,16.7632 z"
       id="path4897"
       inkscape:connector-curvature="0" />
    <path
       style="fill:#ffffff;fill-opacity:1;fill-rule:nonzero;stroke:none"
       d="m 1032.4923,744.26985 -14.3585,10.05558 5.5599,16.62426 -14.0004,-10.54833 -14.09275,10.42468 5.70575,-16.57481 -14.26942,-10.18164 17.52682,0.3046 5.2737,-16.71731 5.1261,16.7632 z"
       id="path4899"
       inkscape:connector-curvature="0" />
  </g>
  <g
     inkscape:label="Layer 1"
     inkscape:groupmode="layer"
     id="layer1"
     transform="translate(-592.65625,-290.46875)">
    <path
       style="fill:none;stroke:#000000;stroke-width:33.75065231;stroke-miterlimit:4"
       d="m 609.52511,307.34599 1954.80889,0 0,466.24934 -1954.80889,0 z"
       id="rect3905"
       inkscape:connector-curvature="0" />
    <g
       transform="matrix(7.3034055,0,0,8.3051676,-4023.0233,-5365.8703)"
       style="font-size:31.10460854px;font-style:normal;font-variant:normal;font-weight:normal;font-stretch:normal;line-height:125%;letter-spacing:0px;word-spacing:0px;opacity:0.7;fill:#083456;fill-opacity:1;stroke:#000000;stroke-width:10;stroke-linejoin:round;stroke-miterlimit:4;filter:url(#filter5847);font-family:Frankfurter D;-inkscape-font-specification:Frankfurter D"
       id="text4430">
      <path
         d="m 671.79264,719.8015 -8.82411,0 -2.67305,4.92085 -4.70821,0 12.59068,-22.26531 5.08791,0 3.6147,22.26531 -4.34371,0 z m -0.56194,-3.70582 -1.29097,-8.9608 -5.37648,8.9608 z"
         style="font-style:oblique;font-weight:bold;fill:#083456;stroke:#000000;font-family:Arial;-inkscape-font-specification:Arial Bold Oblique"
         id="path3891"
         inkscape:connector-curvature="0" />
      <path
         d="m 692.49361,724.72235 -4.34371,0 -0.80495,-18.60505 -3.53876,18.60505 -4.13108,0 4.64747,-22.26531 6.53075,0 0.68345,15.59787 7.5939,-15.59787 6.60669,0 -4.66265,22.26531 -4.17665,0 4.38928,-18.46836 z"
         style="font-style:oblique;font-weight:bold;fill:#083456;stroke:#000000;font-family:Arial;-inkscape-font-specification:Arial Bold Oblique"
         id="path3893"
         inkscape:connector-curvature="0" />
      <path
         d="m 718.43437,724.72235 -4.34371,0 -0.80495,-18.60505 -3.53876,18.60505 -4.13108,0 4.64746,-22.26531 6.53076,0 0.68345,15.59787 7.5939,-15.59787 6.60669,0 -4.66265,22.26531 -4.17665,0 4.38927,-18.46836 z"
         style="font-style:oblique;font-weight:bold;fill:#083456;stroke:#000000;font-family:Arial;-inkscape-font-specification:Arial Bold Oblique"
         id="path3895"
         inkscape:connector-curvature="0" />
      <path
         d="m 736.23446,702.45704 4.57153,0 -2.52117,12.08949 -0.6227,2.97681 c -0.0405,0.25313 -0.0608,0.49107 -0.0607,0.71382 -10e-6,0.8809 0.32146,1.60738 0.96442,2.17945 0.64294,0.57208 1.57699,0.85811 2.80215,0.85811 1.10363,0 2.0149,-0.20756 2.7338,-0.6227 0.71888,-0.41513 1.27576,-1.03276 1.67066,-1.85291 0.39487,-0.82013 0.79481,-2.21235 1.19984,-4.17664 l 2.55155,-12.16543 4.57152,0 -2.53636,12.18061 c -0.53665,2.56169 -1.15429,4.52091 -1.85291,5.87768 -0.69866,1.35678 -1.75674,2.46043 -3.17425,3.31094 -1.41754,0.85052 -3.2097,1.27578 -5.37648,1.27578 -2.59206,0 -4.5766,-0.63536 -5.95362,-1.90607 -1.37703,-1.27071 -2.06554,-2.9034 -2.06554,-4.89807 0,-0.41512 0.0354,-0.86569 0.10632,-1.35171 0.0405,-0.324 0.21769,-1.24539 0.53157,-2.76418 z"
         style="font-style:oblique;font-weight:bold;fill:#083456;stroke:#000000;font-family:Arial;-inkscape-font-specification:Arial Bold Oblique"
         id="path3897"
         inkscape:connector-curvature="0" />
      <path
         d="m 754.85471,714.59209 8.4596,0 -0.88089,4.20702 -8.4596,0 z"
         style="font-style:oblique;font-weight:bold;fill:#083456;stroke:#000000;font-family:Arial;-inkscape-font-specification:Arial Bold Oblique"
         id="path3899"
         inkscape:connector-curvature="0" />
      <path
         d="m 782.2383,724.72235 -4.26777,0 -6.01437,-14.95998 -3.12868,14.95998 -4.26777,0 4.64746,-22.26531 4.28296,0 6.02956,14.89923 3.1135,-14.89923 4.25258,0 z"
         style="font-style:oblique;font-weight:bold;fill:#083456;stroke:#000000;font-family:Arial;-inkscape-font-specification:Arial Bold Oblique"
         id="path3901"
         inkscape:connector-curvature="0" />
      <path
         d="m 801.49643,719.8015 -8.82411,0 -2.67306,4.92085 -4.70821,0 12.59068,-22.26531 5.08791,0 3.6147,22.26531 -4.34371,0 z m -0.56195,-3.70582 -1.29097,-8.9608 -5.37648,8.9608 z"
         style="font-style:oblique;font-weight:bold;fill:#083456;stroke:#000000;font-family:Arial;-inkscape-font-specification:Arial Bold Oblique"
         id="path3903"
         inkscape:connector-curvature="0" />
      <path
         d="m 819.08391,724.72235 -4.58672,0 3.88808,-18.5443 -6.53076,0 0.77458,-3.72101 17.54191,0 -0.77458,3.72101 -6.43963,0 z"
         style="font-style:oblique;font-weight:bold;fill:#083456;stroke:#000000;font-family:Arial;-inkscape-font-specification:Arial Bold Oblique"
         id="path3905"
         inkscape:connector-curvature="0" />
      <path
         d="m 828.21177,724.72235 4.66266,-22.26531 4.57152,0 -4.64746,22.26531 z"
         style="font-style:oblique;font-weight:bold;fill:#083456;stroke:#000000;font-family:Arial;-inkscape-font-specification:Arial Bold Oblique"
         id="path3907"
         inkscape:connector-curvature="0" />
      <path
         d="m 838.47872,715.98937 c -10e-6,-1.31627 0.19744,-2.70342 0.59232,-4.16146 0.51638,-1.95415 1.30362,-3.65012 2.3617,-5.08791 1.05808,-1.43776 2.39207,-2.57431 4.00199,-3.40966 1.60989,-0.83531 3.44255,-1.25297 5.49798,-1.25299 2.75404,2e-5 4.97905,0.8556 6.67504,2.56673 1.69594,1.71118 2.54393,3.97922 2.54395,6.80414 -2e-5,2.34905 -0.55184,4.62216 -1.65547,6.81932 -1.10366,2.19717 -2.60219,3.88808 -4.49558,5.07272 -1.89343,1.18465 -4.03491,1.77697 -6.42444,1.77697 -2.07568,0 -3.81721,-0.47082 -5.2246,-1.41246 -1.40741,-0.94164 -2.40474,-2.10857 -2.992,-3.50079 -0.58727,-1.39221 -0.8809,-2.79708 -0.88089,-4.21461 z m 4.52596,-0.0911 c -10e-6,1.52891 0.46575,2.80975 1.39728,3.84251 0.93151,1.03278 2.15665,1.54916 3.67544,1.54916 1.23527,0 2.42244,-0.40754 3.56154,-1.22262 1.13907,-0.81507 2.08071,-2.05034 2.82493,-3.70582 0.74419,-1.65546 1.11629,-3.2679 1.11631,-4.83731 -2e-5,-1.75165 -0.47084,-3.12614 -1.41247,-4.12349 -0.94166,-0.99732 -2.14149,-1.49598 -3.59951,-1.496 -2.23768,2e-5 -4.05768,1.04291 -5.46001,3.12869 -1.40235,2.0858 -2.10352,4.37409 -2.10351,6.86488 z"
         style="font-style:oblique;font-weight:bold;fill:#083456;stroke:#000000;font-family:Arial;-inkscape-font-specification:Arial Bold Oblique"
         id="path3909"
         inkscape:connector-curvature="0" />
      <path
         d="m 879.01494,724.72235 -4.26777,0 -6.01436,-14.95998 -3.12869,14.95998 -4.26777,0 4.64746,-22.26531 4.28296,0 6.02956,14.89923 3.1135,-14.89923 4.25258,0 z"
         style="font-style:oblique;font-weight:bold;fill:#083456;stroke:#000000;font-family:Arial;-inkscape-font-specification:Arial Bold Oblique"
         id="path3911"
         inkscape:connector-curvature="0" />
    </g>
  </g>
  <g
     inkscape:groupmode="layer"
     id="layer6"
     inkscape:label="Warstwa#1"
     transform="translate(-592.65625,-290.46875)">
    <g
       transform="matrix(3.7431273,0,0,4.2565486,-1772.9661,-2364.7653)"
       style="font-size:60.68977737px;font-style:normal;font-variant:normal;font-weight:normal;font-stretch:normal;line-height:125%;letter-spacing:0px;word-spacing:0px;opacity:0.85;fill:none;stroke:#ffffff;stroke-width:19.51199913;stroke-linejoin:round;stroke-miterlimit:4;font-family:Frankfurter D;-inkscape-font-specification:Frankfurter D"
       id="text4419">
      <path
         d="m 706.03253,695.2931 -17.21717,0 -5.21552,9.60131 -9.18644,0 24.56632,-43.44298 9.92728,0 7.05282,43.44298 -8.47524,0 z m -1.09644,-7.23062 -2.51887,-17.48387 -10.49032,17.48387 z"
         style="font-style:oblique;font-weight:bold;fill:none;stroke:#ffffff;font-family:Arial;-inkscape-font-specification:Arial Bold Oblique"
         id="path3845"
         inkscape:connector-curvature="0" />
      <path
         d="m 746.42324,704.89441 -8.47523,0 -1.57059,-36.30126 -6.90465,36.30126 -8.06036,0 9.06791,-43.44298 12.74248,0 1.33352,30.43379 14.81684,-30.43379 12.89065,0 -9.09754,43.44298 -8.14926,0 8.56413,-36.03456 z"
         style="font-style:oblique;font-weight:bold;fill:none;stroke:#ffffff;font-family:Arial;-inkscape-font-specification:Arial Bold Oblique"
         id="path3847"
         inkscape:connector-curvature="0" />
      <path
         d="m 797.03756,704.89441 -8.47523,0 -1.57059,-36.30126 -6.90464,36.30126 -8.06037,0 9.06791,-43.44298 12.74248,0 1.33352,30.43379 14.81684,-30.43379 12.89065,0 -9.09754,43.44298 -8.14926,0 8.56413,-36.03456 z"
         style="font-style:oblique;font-weight:bold;fill:none;stroke:#ffffff;font-family:Arial;-inkscape-font-specification:Arial Bold Oblique"
         id="path3849"
         inkscape:connector-curvature="0" />
      <path
         d="m 831.76824,661.45143 8.91974,0 -4.91919,23.58841 -1.21498,5.8082 c -0.079,0.49391 -0.11855,0.95817 -0.11854,1.39279 -10e-6,1.71876 0.62723,3.13624 1.88174,4.25243 1.25448,1.11621 3.07695,1.67431 5.46742,1.6743 2.15335,10e-6 3.93137,-0.40498 5.33406,-1.21498 1.40263,-0.80998 2.4892,-2.01508 3.2597,-3.61531 0.77045,-1.6002 1.5508,-4.31662 2.34106,-8.14926 l 4.97846,-23.73658 8.91974,0 -4.94882,23.76622 c -1.0471,4.99822 -2.2522,8.82097 -3.61531,11.46823 -1.36319,2.64728 -3.42767,4.80066 -6.19344,6.46014 -2.76584,1.65949 -6.26261,2.48923 -10.49033,2.48923 -5.05749,0 -8.92962,-1.23967 -11.6164,-3.71903 -2.68679,-2.47934 -4.03018,-5.66496 -4.03018,-9.55686 0,-0.80997 0.0691,-1.6891 0.20744,-2.6374 0.079,-0.63216 0.42474,-2.42994 1.03718,-5.39332 z"
         style="font-style:oblique;font-weight:bold;fill:none;stroke:#ffffff;font-family:Arial;-inkscape-font-specification:Arial Bold Oblique"
         id="path3851"
         inkscape:connector-curvature="0" />
      <path
         d="m 868.09912,685.12874 16.50596,0 -1.71875,8.20853 -16.50596,0 z"
         style="font-style:oblique;font-weight:bold;fill:none;stroke:#ffffff;font-family:Arial;-inkscape-font-specification:Arial Bold Oblique"
         id="path3853"
         inkscape:connector-curvature="0" />
      <path
         d="m 921.52865,704.89441 -8.32707,0 -11.73493,-29.18918 -6.10454,29.18918 -8.32707,0 9.06791,-43.44298 8.3567,0 11.76457,29.07064 6.0749,-29.07064 8.29744,0 z"
         style="font-style:oblique;font-weight:bold;fill:none;stroke:#ffffff;font-family:Arial;-inkscape-font-specification:Arial Bold Oblique"
         id="path3855"
         inkscape:connector-curvature="0" />
      <path
         d="m 959.10416,695.2931 -17.21717,0 -5.21553,9.60131 -9.18644,0 24.56632,-43.44298 9.92728,0 7.05282,43.44298 -8.47523,0 z m -1.09645,-7.23062 -2.51886,-17.48387 -10.49032,17.48387 z"
         style="font-style:oblique;font-weight:bold;fill:none;stroke:#ffffff;font-family:Arial;-inkscape-font-specification:Arial Bold Oblique"
         id="path3857"
         inkscape:connector-curvature="0" />
      <path
         d="m 993.41996,704.89441 -8.94937,0 7.58622,-36.18272 -12.74248,0 1.51132,-7.26026 34.22685,0 -1.5113,7.26026 -12.5646,0 z"
         style="font-style:oblique;font-weight:bold;fill:none;stroke:#ffffff;font-family:Arial;-inkscape-font-specification:Arial Bold Oblique"
         id="path3859"
         inkscape:connector-curvature="0" />
      <path
         d="m 1011.2298,704.89441 9.0976,-43.44298 8.9197,0 -9.0679,43.44298 z"
         style="font-style:oblique;font-weight:bold;fill:none;stroke:#ffffff;font-family:Arial;-inkscape-font-specification:Arial Bold Oblique"
         id="path3861"
         inkscape:connector-curvature="0" />
      <path
         d="m 1031.2622,687.85504 c 0,-2.56823 0.3852,-5.27477 1.1557,-8.11963 1.0075,-3.81283 2.5435,-7.12192 4.608,-9.92728 2.0645,-2.80528 4.6673,-5.02287 7.8085,-6.65276 3.1411,-1.62981 6.7169,-2.44473 10.7274,-2.44478 5.3735,5e-5 9.7148,1.66941 13.024,5.00809 3.309,3.33877 4.9636,7.76406 4.9636,13.27589 0,4.58337 -1.0767,9.01854 -3.23,13.30553 -2.1535,4.28701 -5.0773,7.58622 -8.7716,9.89764 -3.6944,2.31143 -7.8727,3.46714 -12.5351,3.46714 -4.0499,0 -7.4479,-0.91864 -10.1939,-2.75593 -2.7461,-1.83728 -4.6921,-4.11413 -5.8379,-6.83056 -1.1458,-2.71641 -1.7187,-5.45752 -1.7187,-8.22335 z m 8.8308,-0.1778 c 0,2.98314 0.9087,5.48224 2.7263,7.49732 1.8175,2.0151 4.208,3.02264 7.1713,3.02264 2.4102,0 4.7266,-0.79517 6.9491,-2.38551 2.2225,-1.59033 4.0598,-4.00054 5.5119,-7.23062 1.452,-3.23005 2.178,-6.37616 2.1781,-9.43833 -10e-5,-3.41772 -0.9187,-6.09957 -2.7559,-8.04554 -1.8374,-1.94591 -4.1784,-2.91888 -7.0232,-2.91892 -4.3661,4e-5 -7.9172,2.03488 -10.6533,6.10454 -2.7362,4.06972 -4.1043,8.53452 -4.1043,13.39442 z"
         style="font-style:oblique;font-weight:bold;fill:none;stroke:#ffffff;font-family:Arial;-inkscape-font-specification:Arial Bold Oblique"
         id="path3863"
         inkscape:connector-curvature="0" />
      <path
         d="m 1110.3545,704.89441 -8.3271,0 -11.7349,-29.18918 -6.1046,29.18918 -8.327,0 9.0679,-43.44298 8.3567,0 11.7645,29.07064 6.0749,-29.07064 8.2975,0 z"
         style="font-style:oblique;font-weight:bold;fill:none;stroke:#ffffff;font-family:Arial;-inkscape-font-specification:Arial Bold Oblique"
         id="path3865"
         inkscape:connector-curvature="0" />
    </g>
  </g>
  <g
     inkscape:groupmode="layer"
     id="layer5"
     inkscape:label="Warstwa"
     transform="translate(-592.65625,-290.46875)">
    <g
       transform="matrix(3.7431273,0,0,4.2565486,-1772.9661,-2364.7653)"
       style="font-size:60.68977737px;font-style:normal;font-variant:normal;font-weight:normal;font-stretch:normal;line-height:125%;letter-spacing:0px;word-spacing:0px;fill:#083456;fill-opacity:1;stroke:none;font-family:Frankfurter D;-inkscape-font-specification:Frankfurter D"
       id="text4415">
      <path
         d="m 704.99848,695.29297 -17.21717,0 -5.21553,9.60132 -9.18644,0 24.56632,-43.44298 9.92728,0 7.05282,43.44298 -8.47523,0 z m -1.09645,-7.23061 -2.51886,-17.48387 -10.49033,17.48387 z"
         style="font-style:oblique;font-weight:bold;fill:#083456;font-family:Arial;-inkscape-font-specification:Arial Bold Oblique"
         id="path3868"
         inkscape:connector-curvature="0" />
      <path
         d="m 745.38918,704.89429 -8.47523,0 -1.57059,-36.30126 -6.90465,36.30126 -8.06036,0 9.06791,-43.44298 12.74248,0 1.33352,30.43379 14.81684,-30.43379 12.89065,0 -9.09754,43.44298 -8.14926,0 8.56413,-36.03456 z"
         style="font-style:oblique;font-weight:bold;fill:#083456;font-family:Arial;-inkscape-font-specification:Arial Bold Oblique"
         id="path3870"
         inkscape:connector-curvature="0" />
      <path
         d="m 796.0035,704.89429 -8.47523,0 -1.57058,-36.30126 -6.90465,36.30126 -8.06036,0 9.0679,-43.44298 12.74249,0 1.33351,30.43379 14.81684,-30.43379 12.89065,0 -9.09754,43.44298 -8.14926,0 8.56413,-36.03456 z"
         style="font-style:oblique;font-weight:bold;fill:#083456;font-family:Arial;-inkscape-font-specification:Arial Bold Oblique"
         id="path3872"
         inkscape:connector-curvature="0" />
      <path
         d="m 830.73418,661.45131 8.91974,0 -4.91919,23.58841 -1.21498,5.8082 c -0.079,0.49391 -0.11855,0.95817 -0.11853,1.39279 -2e-5,1.71876 0.62723,3.13624 1.88173,4.25243 1.25448,1.11621 3.07695,1.67431 5.46742,1.6743 2.15336,10e-6 3.93137,-0.40498 5.33406,-1.21498 1.40263,-0.80998 2.4892,-2.01508 3.25971,-3.61531 0.77044,-1.6002 1.55079,-4.31662 2.34106,-8.14926 l 4.97845,-23.73658 8.91974,0 -4.94882,23.76621 c -1.0471,4.99823 -2.2522,8.82097 -3.61531,11.46824 -1.36319,2.64728 -3.42766,4.80066 -6.19344,6.46014 -2.76584,1.65949 -6.26261,2.48923 -10.49032,2.48923 -5.0575,0 -8.92963,-1.23968 -11.61641,-3.71903 -2.68679,-2.47934 -4.03018,-5.66496 -4.03018,-9.55686 0,-0.80997 0.0691,-1.68911 0.20744,-2.6374 0.079,-0.63217 0.42474,-2.42994 1.03718,-5.39333 z"
         style="font-style:oblique;font-weight:bold;fill:#083456;font-family:Arial;-inkscape-font-specification:Arial Bold Oblique"
         id="path3874"
         inkscape:connector-curvature="0" />
      <path
         d="m 867.06506,685.12862 16.50596,0 -1.71875,8.20853 -16.50596,0 z"
         style="font-style:oblique;font-weight:bold;fill:#083456;font-family:Arial;-inkscape-font-specification:Arial Bold Oblique"
         id="path3876"
         inkscape:connector-curvature="0" />
      <path
         d="m 920.49459,704.89429 -8.32706,0 -11.73494,-29.18918 -6.10454,29.18918 -8.32706,0 9.0679,-43.44298 8.3567,0 11.76457,29.07064 6.07491,-29.07064 8.29743,0 z"
         style="font-style:oblique;font-weight:bold;fill:#083456;font-family:Arial;-inkscape-font-specification:Arial Bold Oblique"
         id="path3878"
         inkscape:connector-curvature="0" />
      <path
         d="m 958.0701,695.29297 -17.21717,0 -5.21553,9.60132 -9.18644,0 24.56632,-43.44298 9.92729,0 7.05281,43.44298 -8.47523,0 z m -1.09645,-7.23061 -2.51886,-17.48387 -10.49032,17.48387 z"
         style="font-style:oblique;font-weight:bold;fill:#083456;font-family:Arial;-inkscape-font-specification:Arial Bold Oblique"
         id="path3880"
         inkscape:connector-curvature="0" />
      <path
         d="m 992.3859,704.89429 -8.94937,0 7.58622,-36.18273 -12.74248,0 1.51132,-7.26025 34.22691,0 -1.5113,7.26025 -12.56471,0 z"
         style="font-style:oblique;font-weight:bold;fill:#083456;font-family:Arial;-inkscape-font-specification:Arial Bold Oblique"
         id="path3882"
         inkscape:connector-curvature="0" />
      <path
         d="m 1010.1958,704.89429 9.0975,-43.44298 8.9197,0 -9.0679,43.44298 z"
         style="font-style:oblique;font-weight:bold;fill:#083456;font-family:Arial;-inkscape-font-specification:Arial Bold Oblique"
         id="path3884"
         inkscape:connector-curvature="0" />
      <path
         d="m 1030.2281,687.85492 c 0,-2.56823 0.3852,-5.27477 1.1557,-8.11963 1.0076,-3.81284 2.5436,-7.12193 4.6081,-9.92728 2.0644,-2.80528 4.6672,-5.02287 7.8084,-6.65276 3.1412,-1.62981 6.717,-2.44474 10.7274,-2.44478 5.3736,4e-5 9.7149,1.66941 13.024,5.00809 3.3091,3.33877 4.9636,7.76406 4.9637,13.27589 -10e-5,4.58336 -1.0768,9.01853 -3.2301,13.30552 -2.1534,4.28702 -5.0773,7.58623 -8.7716,9.89765 -3.6943,2.31143 -7.8727,3.46714 -12.535,3.46714 -4.05,0 -7.448,-0.91864 -10.194,-2.75593 -2.7461,-1.83728 -4.692,-4.11414 -5.8378,-6.83056 -1.1459,-2.71641 -1.7188,-5.45752 -1.7188,-8.22335 z m 8.8308,-0.1778 c 0,2.98314 0.9088,5.48224 2.7263,7.49732 1.8176,2.0151 4.208,3.02264 7.1714,3.02264 2.4102,0 4.7265,-0.79517 6.9491,-2.38552 2.2225,-1.59033 4.0598,-4.00053 5.5119,-7.23061 1.452,-3.23006 2.178,-6.37616 2.178,-9.43833 0,-3.41772 -0.9187,-6.09957 -2.7559,-8.04555 -1.8373,-1.9459 -4.1784,-2.91888 -7.0232,-2.91891 -4.366,3e-5 -7.9171,2.03488 -10.6533,6.10454 -2.7362,4.06971 -4.1043,8.53452 -4.1043,13.39442 z"
         style="font-style:oblique;font-weight:bold;fill:#083456;font-family:Arial;-inkscape-font-specification:Arial Bold Oblique"
         id="path3886"
         inkscape:connector-curvature="0" />
      <path
         d="m 1109.3204,704.89429 -8.3271,0 -11.7349,-29.18918 -6.1045,29.18918 -8.3271,0 9.0679,-43.44298 8.3567,0 11.7646,29.07064 6.0749,-29.07064 8.2974,0 z"
         style="font-style:oblique;font-weight:bold;fill:#083456;font-family:Arial;-inkscape-font-specification:Arial Bold Oblique"
         id="path3888"
         inkscape:connector-curvature="0" />
    </g>
  </g>
</svg>
